<svg width="16" height="16" viewBox="0 0 16 16" fill="none" xmlns="http://www.w3.org/2000/svg">
<path fill-rule="evenodd" clip-rule="evenodd" d="M14.1705 2.83409C15.1594 3.40287 15.7692 4.45463 15.7692 5.59219V10.4072C15.7692 11.5454 15.1594 12.5965 14.1705 13.1653L9.98277 15.5734C8.99385 16.1422 7.77477 16.1422 6.78585 15.5734L2.59815 13.1653C1.60923 12.5965 1 11.5454 1 10.4072V5.59219C1 4.45463 1.60923 3.40287 2.59815 2.83409L6.78585 0.426585C7.77477 -0.142195 8.99385 -0.142195 9.98277 0.426585L14.1705 2.83409ZM7.34646 1.5194L3.26831 3.86439C2.62585 4.23398 2.23077 4.91615 2.23077 5.65532V10.3447C2.23077 11.0832 2.62585 11.766 3.26831 12.1356L7.34646 14.48C7.98892 14.8496 8.77969 14.8496 9.42215 14.48L13.5003 12.1356C14.1428 11.766 14.5385 11.0832 14.5385 10.3447V5.65532C14.5385 4.91615 14.1428 4.23398 13.5003 3.86439L9.42215 1.5194C8.77969 1.14982 7.98892 1.14982 7.34646 1.5194ZM9.23692 2.8298L12.4548 4.67956C12.9822 4.98295 13.3077 5.54377 13.3077 6.15116V9.85129C13.3077 10.4581 12.9822 11.0189 12.4548 11.3223L9.23692 13.1726C8.70954 13.476 8.05908 13.476 7.53169 13.1726L4.31385 11.3223C3.78646 11.0189 3.46154 10.4581 3.46154 9.85129V6.15116C3.46154 5.54377 3.78646 4.98295 4.31385 4.67956L7.53169 2.8298C8.05908 2.52641 8.70954 2.52641 9.23692 2.8298ZM6.53846 9.83965H10.2308V6.16219H6.53846V9.83965Z" fill="url(#paint0_linear_12152_1026)" style=""/>
<defs>
<linearGradient id="paint0_linear_12152_1026" x1="8.38462" y1="0" x2="8.38462" y2="16" gradientUnits="userSpaceOnUse">
<stop stop-color="#FFD74A" style="stop-color:#FFD74A;stop-color:color(display-p3 1.0000 0.8442 0.2917);stop-opacity:1;"/>
<stop offset="1" stop-color="#947C28" style="stop-color:#947C28;stop-color:color(display-p3 0.5792 0.4863 0.1569);stop-opacity:1;"/>
</linearGradient>
</defs>
</svg>
